 <svg
            width="83"
            height="19"
            viewBox="0 0 83 19"
            fill="none"
            xmlns="http://www.w3.org/2000/svg"
          >
            <path
              d="M19.9539 10.99C19.9539 9.30907 21.2109 7.94089 22.9786 7.94089C24.7462 7.94089 24.707 8.29271 25.2569 8.83998L24.432 9.77817C23.9999 9.38726 23.5285 9.11362 22.9393 9.11362C21.9572 9.11362 21.2502 9.93453 21.2502 10.9118C21.2502 11.9282 21.9179 12.7491 22.9393 12.7491C23.9606 12.7491 23.9999 12.4755 24.4713 12.0845L25.2962 12.9055C24.707 13.5309 24.0392 13.9609 22.9393 13.9609C21.2502 13.9609 19.9931 12.6318 19.9931 10.9509L19.9539 10.99Z"
              fill="#231F20"
            />
            <path
              d="M26.3174 8.05816H27.5744V10.3645H29.9313V8.05816H31.1883V13.8827H29.9313V11.5373H27.5744V13.8827H26.3174V8.05816Z"
              fill="#231F20"
            />
            <path
              d="M32.7205 8.05816H37.0807V9.19181H33.9775V10.3645H36.6879V11.4982H33.9775V12.71H37.12V13.8436H32.7205V8.01907V8.05816Z"
              fill="#231F20"
            />
            <path
              d="M38.0234 10.99C38.0234 9.30907 39.2805 7.94089 41.0481 7.94089C42.8158 7.94089 42.7765 8.29271 43.3265 8.83998L42.5016 9.77817C42.0695 9.38726 41.5981 9.11362 41.0089 9.11362C40.0268 9.11362 39.3197 9.93453 39.3197 10.9118C39.3197 11.9282 39.9875 12.7491 41.0089 12.7491C42.0302 12.7491 42.0695 12.4755 42.5408 12.0845L43.3658 12.9055C42.7765 13.5309 42.1087 13.9609 41.0089 13.9609C39.3197 13.9609 38.0627 12.6318 38.0627 10.9509L38.0234 10.99Z"
              fill="#231F20"
            />
            <path
              d="M44.3477 8.05816H45.6047V10.5991L47.9616 8.05816H49.4936L47.1367 10.5209L49.6114 13.8827H48.0794L46.2725 11.3809L45.6047 12.0845V13.8827H44.3477V8.05816Z"
              fill="#231F20"
            />
            <path
              d="M52.9897 8.05816H55.3466C56.7215 8.05816 57.5464 8.87907 57.5464 10.0909C57.5464 11.4591 56.5251 12.1627 55.1895 12.1627H54.2075V13.9218H52.9504V8.09725L52.9897 8.05816ZM55.2681 10.99C55.8966 10.99 56.2894 10.5991 56.2894 10.0909C56.2894 9.50453 55.8966 9.1918 55.2681 9.1918H54.286V10.99H55.3073H55.2681Z"
              fill="#231F20"
            />
            <path
              d="M58.3713 10.99C58.3713 9.30907 59.6676 7.94089 61.4353 7.94089C63.203 7.94089 64.4993 9.26998 64.4993 10.9509C64.4993 12.6318 63.203 14 61.4353 14C59.6676 14 58.3713 12.6709 58.3713 10.99ZM63.203 10.99C63.203 9.97362 62.4959 9.15271 61.4353 9.15271C60.3747 9.15271 59.7069 9.97362 59.7069 10.9509C59.7069 11.9673 60.414 12.7882 61.4746 12.7882C62.5352 12.7882 63.203 11.9673 63.203 10.99Z"
              fill="#231F20"
            />
            <path
              d="M65.7563 8.05816H67.0134V13.8827H65.7563V8.05816Z"
              fill="#231F20"
            />
            <path
              d="M68.624 8.05816H69.8025L72.5129 11.6545V8.05816H73.7699V13.8827H72.67L69.881 10.1691V13.8827H68.624V8.05816Z"
              fill="#231F20"
            />
            <path
              d="M76.6373 9.23089H74.8696V8.05816H79.662V9.23089H77.8943V13.8827H76.6373V9.23089Z"
              fill="#231F20"
            />
            <path
              d="M80.8799 8.83998H80.7227V8.17543H80.4871V8.05816H81.1156V8.17543H80.8799V8.83998Z"
              fill="#231F20"
            />
            <path
              d="M81.7441 8.64453L81.5084 8.25362V8.83999H81.3513V8.01907H81.5084L81.7441 8.40998L81.9798 8.01907H82.137V8.83999H82.0191V8.25362L81.7834 8.64453H81.7441Z"
              fill="#231F20"
            />
            <path
              d="M19.0837 4.73795C18.0907 5.98397 16.2773 6.1988 15.0252 5.16761C13.7731 4.17939 13.6004 2.33184 14.5934 1.08581C15.5865 -0.16021 17.3999 -0.375042 18.652 0.65615C19.9041 1.64438 20.0768 3.49193 19.0837 4.73795Z"
              fill="#231F20"
            />
            <path
              d="M15.1979 9.24942C14.4208 9.63611 13.4277 9.59315 12.6074 9.16348L10.3622 12.2141C10.6644 12.5578 10.794 12.9445 10.8372 13.3742C10.8372 13.7609 10.7508 14.1476 10.5349 14.4913C9.97363 15.3936 8.80789 15.6514 7.90119 15.0499C7.81484 15.0069 7.72849 14.921 7.64214 14.835C7.64214 14.835 7.59896 14.7921 7.55578 14.7491C7.51261 14.7061 7.46943 14.6202 7.42626 14.5772C7.42626 14.5772 7.42626 14.5343 7.38308 14.4913C7.3399 14.4054 7.29673 14.3194 7.25355 14.2335C7.25355 14.2335 7.25355 14.1905 7.25355 14.1476C7.25355 14.0616 7.21038 14.0187 7.1672 13.9327C7.1672 13.9327 7.1672 13.8898 7.1672 13.8468C7.1672 13.7609 7.1672 13.6749 7.12402 13.546V13.4601C7.12402 13.3742 7.12402 13.2882 7.12402 13.2023C7.12402 13.0305 7.12402 12.9445 7.1672 12.8586C7.1672 12.8586 7.1672 12.8156 7.1672 12.7727C7.1672 12.6867 7.25355 12.5578 7.29673 12.4719L5.48334 11.097L4.92205 11.8704L2.84961 10.2806L4.40394 8.17526L6.47639 9.76501L5.9151 10.5384L7.77166 11.9563C8.33295 11.4837 9.15329 11.3548 9.84411 11.7415L12.0893 8.73382C11.1826 7.83153 10.9667 6.41364 11.6143 5.25355C11.7438 5.03872 11.9166 4.82388 12.0893 4.65202C10.8803 3.79269 9.36917 3.32006 7.77166 3.32006C3.45407 3.2771 0 6.75737 0 11.054C0 15.3506 3.4109 18.8309 7.68531 18.8309C11.9166 18.8309 15.3706 15.3936 15.4138 11.097C15.4138 10.4525 15.3274 9.85094 15.1979 9.29238V9.24942Z"
              fill="#EE0C5D"
            />
          </svg>