<svg width="300" height="176" viewBox="0 0 300 176" fill="none" xmlns="http://www.w3.org/2000/svg">
<rect width="300" height="176" rx="9" fill="#F2F6F9"/>
<path d="M30.2585 59L22.6392 32.8182H29.6321L33.5824 49.9744H33.7997L38.3125 32.8182H44.0142L48.527 50.0128H48.7443L52.7074 32.8182H59.6875L52.081 59H45.983L41.2656 43.1222H41.0611L36.3438 59H30.2585ZM65.4084 59H61.2152L70.6371 32.8182H75.201L84.6229 59H80.4297L73.0277 37.5739H72.8232L65.4084 59ZM66.1115 48.7472H79.7138V52.071H66.1115V48.7472ZM88.4038 59V32.8182H104.64V36.2188H92.354V44.196H103.476V47.5838H92.354V59H88.4038ZM47.7472 85.304H41.3551C41.2699 84.6477 41.0952 84.0554 40.831 83.527C40.5668 82.9986 40.2173 82.5469 39.7827 82.1719C39.348 81.7969 38.8324 81.5114 38.2358 81.3153C37.6477 81.1108 36.9957 81.0085 36.2798 81.0085C35.0099 81.0085 33.9148 81.3196 32.9943 81.9418C32.0824 82.5639 31.3793 83.4631 30.8849 84.6392C30.3991 85.8153 30.1562 87.2386 30.1562 88.9091C30.1562 90.6477 30.4034 92.1051 30.8977 93.2812C31.4006 94.4489 32.1037 95.331 33.0071 95.9276C33.919 96.5156 34.9972 96.8097 36.2415 96.8097C36.9403 96.8097 37.5753 96.7202 38.1463 96.5412C38.7259 96.3622 39.233 96.1023 39.6676 95.7614C40.1108 95.4119 40.473 94.9901 40.7543 94.4957C41.044 93.9929 41.2443 93.4261 41.3551 92.7955L47.7472 92.8338C47.6364 93.9929 47.2997 95.1349 46.7372 96.2599C46.1832 97.3849 45.4205 98.4119 44.4489 99.3409C43.4773 100.261 42.2926 100.994 40.8949 101.54C39.5057 102.085 37.9119 102.358 36.1136 102.358C33.7443 102.358 31.6222 101.838 29.7472 100.798C27.8807 99.75 26.4063 98.2244 25.3239 96.2216C24.2415 94.2187 23.7003 91.7812 23.7003 88.9091C23.7003 86.0284 24.25 83.5866 25.3494 81.5838C26.4489 79.581 27.9361 78.0597 29.8111 77.0199C31.6861 75.9801 33.7869 75.4602 36.1136 75.4602C37.6989 75.4602 39.1648 75.6818 40.5114 76.125C41.858 76.5597 43.0426 77.1989 44.0653 78.0426C45.0881 78.8778 45.919 79.9048 46.5582 81.1236C47.1974 82.3423 47.5938 83.7358 47.7472 85.304ZM60.2276 102.396C58.3867 102.396 56.7802 101.974 55.408 101.131C54.0359 100.287 52.9705 99.1065 52.212 97.5895C51.4535 96.0724 51.0742 94.2997 51.0742 92.2713C51.0742 90.2344 51.4535 88.4531 52.212 86.9276C52.9705 85.402 54.0359 84.2173 55.408 83.3736C56.7802 82.5298 58.3867 82.108 60.2276 82.108C62.0685 82.108 63.6751 82.5298 65.0472 83.3736C66.4194 84.2173 67.4847 85.402 68.2433 86.9276C69.0018 88.4531 69.381 90.2344 69.381 92.2713C69.381 94.2997 69.0018 96.0724 68.2433 97.5895C67.4847 99.1065 66.4194 100.287 65.0472 101.131C63.6751 101.974 62.0685 102.396 60.2276 102.396ZM60.2404 99.1875C61.4336 99.1875 62.4222 98.8722 63.2063 98.2415C63.9904 97.6108 64.57 96.7713 64.945 95.723C65.3285 94.6747 65.5202 93.5199 65.5202 92.2585C65.5202 91.0057 65.3285 89.8551 64.945 88.8068C64.57 87.75 63.9904 86.902 63.2063 86.2628C62.4222 85.6236 61.4336 85.304 60.2404 85.304C59.0387 85.304 58.0415 85.6236 57.2489 86.2628C56.4648 86.902 55.881 87.75 55.4975 88.8068C55.1225 89.8551 54.935 91.0057 54.935 92.2585C54.935 93.5199 55.1225 94.6747 55.4975 95.723C55.881 96.7713 56.4648 97.6108 57.2489 98.2415C58.0415 98.8722 59.0387 99.1875 60.2404 99.1875ZM73.6477 102V82.3636H77.3168V85.5597H77.5597C77.9688 84.4773 78.6378 83.6335 79.5668 83.0284C80.4957 82.4148 81.608 82.108 82.9034 82.108C84.2159 82.108 85.3153 82.4148 86.2017 83.0284C87.0966 83.642 87.7571 84.4858 88.1832 85.5597H88.3878C88.8565 84.5114 89.6023 83.6761 90.625 83.054C91.6477 82.4233 92.8665 82.108 94.2812 82.108C96.0625 82.108 97.5156 82.6662 98.6406 83.7827C99.7741 84.8991 100.341 86.5824 100.341 88.8324V102H96.5185V89.1903C96.5185 87.8608 96.1563 86.8977 95.4318 86.3011C94.7074 85.7045 93.8423 85.4062 92.8366 85.4062C91.5923 85.4062 90.625 85.7898 89.9347 86.5568C89.2443 87.3153 88.8991 88.2912 88.8991 89.4844V102H85.0895V88.9474C85.0895 87.8821 84.7571 87.0256 84.0923 86.3778C83.4276 85.7301 82.5625 85.4062 81.4972 85.4062C80.7727 85.4062 80.1037 85.598 79.4901 85.9815C78.8849 86.3565 78.3949 86.8807 78.0199 87.554C77.6534 88.2273 77.4702 89.0071 77.4702 89.8935V102H73.6477ZM105.464 109.364V82.3636H109.197V85.5469H109.517C109.738 85.1378 110.058 84.6648 110.475 84.1278C110.893 83.5909 111.473 83.1222 112.214 82.7216C112.956 82.3125 113.936 82.108 115.154 82.108C116.74 82.108 118.154 82.5085 119.399 83.3097C120.643 84.1108 121.619 85.2656 122.326 86.7741C123.042 88.2827 123.4 90.098 123.4 92.2202C123.4 94.3423 123.047 96.1619 122.339 97.679C121.632 99.1875 120.66 100.351 119.424 101.169C118.189 101.979 116.778 102.384 115.193 102.384C114 102.384 113.024 102.183 112.265 101.783C111.515 101.382 110.927 100.913 110.501 100.376C110.075 99.8395 109.747 99.3622 109.517 98.9446H109.287V109.364H105.464ZM109.21 92.1818C109.21 93.5625 109.41 94.7727 109.811 95.8125C110.211 96.8523 110.791 97.6662 111.549 98.2543C112.308 98.8338 113.237 99.1236 114.336 99.1236C115.478 99.1236 116.433 98.821 117.2 98.2159C117.967 97.6023 118.547 96.7713 118.939 95.723C119.339 94.6747 119.539 93.4943 119.539 92.1818C119.539 90.8864 119.343 89.723 118.951 88.6918C118.568 87.6605 117.988 86.8466 117.213 86.25C116.446 85.6534 115.487 85.3551 114.336 85.3551C113.228 85.3551 112.291 85.6406 111.524 86.2116C110.765 86.7827 110.19 87.5795 109.798 88.6023C109.406 89.625 109.21 90.8182 109.21 92.1818ZM133.397 102.435C132.153 102.435 131.028 102.205 130.022 101.744C129.017 101.276 128.22 100.598 127.632 99.7116C127.052 98.8253 126.762 97.7386 126.762 96.4517C126.762 95.3437 126.975 94.4318 127.402 93.7159C127.828 93 128.403 92.4332 129.127 92.0156C129.852 91.598 130.662 91.2827 131.556 91.0696C132.451 90.8565 133.363 90.6946 134.292 90.5838C135.468 90.4474 136.423 90.3366 137.156 90.2514C137.889 90.1577 138.422 90.0085 138.754 89.804C139.086 89.5994 139.252 89.267 139.252 88.8068V88.7173C139.252 87.6009 138.937 86.7358 138.306 86.1222C137.684 85.5085 136.755 85.2017 135.52 85.2017C134.233 85.2017 133.218 85.4872 132.477 86.0582C131.744 86.6207 131.237 87.2472 130.956 87.9375L127.363 87.1193C127.789 85.9261 128.412 84.9631 129.23 84.2301C130.056 83.4886 131.007 82.9517 132.081 82.6193C133.154 82.2784 134.284 82.108 135.468 82.108C136.252 82.108 137.083 82.2017 137.961 82.3892C138.848 82.5682 139.674 82.9006 140.441 83.3864C141.217 83.8722 141.852 84.5668 142.346 85.4702C142.841 86.3651 143.088 87.5284 143.088 88.9602V102H139.355V99.3153H139.201C138.954 99.8097 138.583 100.295 138.089 100.773C137.595 101.25 136.96 101.646 136.184 101.962C135.409 102.277 134.48 102.435 133.397 102.435ZM134.228 99.3665C135.285 99.3665 136.189 99.1577 136.939 98.7401C137.697 98.3224 138.272 97.777 138.664 97.1037C139.065 96.4219 139.265 95.6932 139.265 94.9176V92.3864C139.129 92.5227 138.865 92.6506 138.473 92.7699C138.089 92.8807 137.65 92.9787 137.156 93.0639C136.662 93.1406 136.18 93.2131 135.711 93.2812C135.243 93.3409 134.85 93.392 134.535 93.4347C133.794 93.5284 133.116 93.6861 132.502 93.9077C131.897 94.1293 131.412 94.4489 131.045 94.8665C130.687 95.2756 130.508 95.821 130.508 96.5028C130.508 97.4489 130.858 98.1648 131.556 98.6506C132.255 99.1278 133.146 99.3665 134.228 99.3665ZM148.179 102V82.3636H151.874V85.483H152.078C152.436 84.4261 153.067 83.5952 153.97 82.9901C154.882 82.3764 155.913 82.0696 157.064 82.0696C157.303 82.0696 157.584 82.0781 157.908 82.0952C158.24 82.1122 158.5 82.1335 158.688 82.1591V85.8153C158.534 85.7727 158.261 85.7259 157.869 85.6747C157.477 85.6151 157.085 85.5852 156.693 85.5852C155.79 85.5852 154.984 85.777 154.277 86.1605C153.578 86.5355 153.024 87.0597 152.615 87.733C152.206 88.3977 152.001 89.1562 152.001 90.0085V102H148.179ZM161.995 102V82.3636H165.818V102H161.995ZM163.926 79.3338C163.261 79.3338 162.69 79.1122 162.213 78.669C161.744 78.2173 161.51 77.6804 161.51 77.0582C161.51 76.4276 161.744 75.8906 162.213 75.4474C162.69 74.9957 163.261 74.7699 163.926 74.7699C164.591 74.7699 165.157 74.9957 165.626 75.4474C166.103 75.8906 166.342 76.4276 166.342 77.0582C166.342 77.6804 166.103 78.2173 165.626 78.669C165.157 79.1122 164.591 79.3338 163.926 79.3338ZM185.675 87.1577L182.21 87.7713C182.065 87.3281 181.835 86.9062 181.52 86.5057C181.213 86.1051 180.795 85.777 180.267 85.5213C179.739 85.2656 179.078 85.1378 178.286 85.1378C177.203 85.1378 176.3 85.3807 175.575 85.8665C174.851 86.3437 174.489 86.9616 174.489 87.7202C174.489 88.3764 174.732 88.9048 175.217 89.3054C175.703 89.706 176.487 90.0341 177.57 90.2898L180.689 91.0057C182.496 91.4233 183.842 92.0668 184.729 92.9361C185.615 93.8054 186.058 94.9347 186.058 96.3239C186.058 97.5 185.717 98.5483 185.036 99.4688C184.362 100.381 183.42 101.097 182.21 101.616C181.009 102.136 179.615 102.396 178.03 102.396C175.831 102.396 174.037 101.928 172.648 100.99C171.259 100.044 170.406 98.7017 170.091 96.9631L173.786 96.4006C174.016 97.3636 174.489 98.0923 175.205 98.5866C175.92 99.0724 176.854 99.3153 178.004 99.3153C179.257 99.3153 180.259 99.0554 181.009 98.5355C181.759 98.0071 182.134 97.3636 182.134 96.6051C182.134 95.9915 181.903 95.4759 181.443 95.0582C180.991 94.6406 180.297 94.3253 179.359 94.1122L176.036 93.3835C174.203 92.9659 172.848 92.3011 171.97 91.3892C171.101 90.4773 170.666 89.3224 170.666 87.9247C170.666 86.7656 170.99 85.7514 171.638 84.8821C172.286 84.0128 173.18 83.3352 174.322 82.8494C175.464 82.3551 176.773 82.108 178.247 82.108C180.369 82.108 182.04 82.5682 183.259 83.4886C184.477 84.4006 185.283 85.6236 185.675 87.1577ZM198.532 102.396C196.691 102.396 195.085 101.974 193.713 101.131C192.341 100.287 191.275 99.1065 190.517 97.5895C189.758 96.0724 189.379 94.2997 189.379 92.2713C189.379 90.2344 189.758 88.4531 190.517 86.9276C191.275 85.402 192.341 84.2173 193.713 83.3736C195.085 82.5298 196.691 82.108 198.532 82.108C200.373 82.108 201.98 82.5298 203.352 83.3736C204.724 84.2173 205.789 85.402 206.548 86.9276C207.306 88.4531 207.686 90.2344 207.686 92.2713C207.686 94.2997 207.306 96.0724 206.548 97.5895C205.789 99.1065 204.724 100.287 203.352 101.131C201.98 101.974 200.373 102.396 198.532 102.396ZM198.545 99.1875C199.738 99.1875 200.727 98.8722 201.511 98.2415C202.295 97.6108 202.875 96.7713 203.25 95.723C203.633 94.6747 203.825 93.5199 203.825 92.2585C203.825 91.0057 203.633 89.8551 203.25 88.8068C202.875 87.75 202.295 86.902 201.511 86.2628C200.727 85.6236 199.738 85.304 198.545 85.304C197.343 85.304 196.346 85.6236 195.554 86.2628C194.77 86.902 194.186 87.75 193.802 88.8068C193.427 89.8551 193.24 91.0057 193.24 92.2585C193.24 93.5199 193.427 94.6747 193.802 95.723C194.186 96.7713 194.77 97.6108 195.554 98.2415C196.346 98.8722 197.343 99.1875 198.545 99.1875ZM215.775 90.3409V102H211.952V82.3636H215.621V85.5597H215.864C216.316 84.5199 217.023 83.6847 217.987 83.054C218.958 82.4233 220.181 82.108 221.656 82.108C222.994 82.108 224.165 82.3892 225.171 82.9517C226.177 83.5057 226.957 84.3324 227.511 85.4318C228.065 86.5312 228.342 87.8906 228.342 89.5099V102H224.519V89.9702C224.519 88.5469 224.148 87.4347 223.407 86.6335C222.665 85.8239 221.647 85.419 220.352 85.419C219.465 85.419 218.677 85.6108 217.987 85.9943C217.305 86.3778 216.763 86.9403 216.363 87.6818C215.971 88.4148 215.775 89.3011 215.775 90.3409ZM23.9815 145V118.818H34.7969C36.7571 118.818 38.4489 119.202 39.8722 119.969C41.304 120.727 42.4077 121.788 43.1832 123.152C43.9588 124.507 44.3466 126.084 44.3466 127.882C44.3466 129.689 43.9503 131.27 43.1577 132.625C42.3736 133.972 41.2528 135.016 39.7955 135.757C38.3381 136.499 36.608 136.869 34.6051 136.869H27.9318V131.884H33.429C34.3835 131.884 35.1804 131.717 35.8196 131.385C36.4673 131.053 36.9574 130.588 37.2898 129.991C37.6222 129.386 37.7884 128.683 37.7884 127.882C37.7884 127.072 37.6222 126.374 37.2898 125.786C36.9574 125.189 36.4673 124.729 35.8196 124.405C35.1719 124.081 34.375 123.919 33.429 123.919H30.3097V145H23.9815ZM48.054 145V125.364H51.7486V128.483H51.9531C52.3111 127.426 52.9418 126.595 53.8452 125.99C54.7571 125.376 55.7884 125.07 56.9389 125.07C57.1776 125.07 57.4588 125.078 57.7827 125.095C58.1151 125.112 58.375 125.134 58.5625 125.159V128.815C58.4091 128.773 58.1364 128.726 57.7443 128.675C57.3523 128.615 56.9602 128.585 56.5682 128.585C55.6648 128.585 54.8594 128.777 54.152 129.161C53.4531 129.536 52.8991 130.06 52.4901 130.733C52.081 131.398 51.8764 132.156 51.8764 133.009V145H48.054ZM69.4386 145.396C67.5977 145.396 65.9911 144.974 64.619 144.131C63.2468 143.287 62.1815 142.107 61.4229 140.589C60.6644 139.072 60.2852 137.3 60.2852 135.271C60.2852 133.234 60.6644 131.453 61.4229 129.928C62.1815 128.402 63.2468 127.217 64.619 126.374C65.9911 125.53 67.5977 125.108 69.4386 125.108C71.2795 125.108 72.886 125.53 74.2582 126.374C75.6303 127.217 76.6957 128.402 77.4542 129.928C78.2127 131.453 78.592 133.234 78.592 135.271C78.592 137.3 78.2127 139.072 77.4542 140.589C76.6957 142.107 75.6303 143.287 74.2582 144.131C72.886 144.974 71.2795 145.396 69.4386 145.396ZM69.4514 142.188C70.6445 142.188 71.6332 141.872 72.4173 141.241C73.2013 140.611 73.7809 139.771 74.1559 138.723C74.5394 137.675 74.7312 136.52 74.7312 135.259C74.7312 134.006 74.5394 132.855 74.1559 131.807C73.7809 130.75 73.2013 129.902 72.4173 129.263C71.6332 128.624 70.6445 128.304 69.4514 128.304C68.2496 128.304 67.2525 128.624 66.4599 129.263C65.6758 129.902 65.092 130.75 64.7085 131.807C64.3335 132.855 64.146 134.006 64.146 135.259C64.146 136.52 64.3335 137.675 64.7085 138.723C65.092 139.771 65.6758 140.611 66.4599 141.241C67.2525 141.872 68.2496 142.188 69.4514 142.188ZM82.8587 125.364H86.6811V146.278C86.6811 147.591 86.4425 148.699 85.9652 149.602C85.4964 150.506 84.7976 151.192 83.8686 151.661C82.9482 152.129 81.8104 152.364 80.4553 152.364C80.3189 152.364 80.1911 152.364 80.0717 152.364C79.9439 152.364 79.8118 152.359 79.6754 152.351V149.065C79.7947 149.065 79.9013 149.065 79.995 149.065C80.0803 149.065 80.1783 149.065 80.2891 149.065C81.1925 149.065 81.8445 148.822 82.245 148.337C82.6541 147.859 82.8587 147.165 82.8587 146.253V125.364ZM84.7507 122.334C84.0859 122.334 83.5149 122.112 83.0376 121.669C82.5689 121.217 82.3345 120.68 82.3345 120.058C82.3345 119.428 82.5689 118.891 83.0376 118.447C83.5149 117.996 84.0859 117.77 84.7507 117.77C85.4155 117.77 85.9822 117.996 86.451 118.447C86.9283 118.891 87.1669 119.428 87.1669 120.058C87.1669 120.68 86.9283 121.217 86.451 121.669C85.9822 122.112 85.4155 122.334 84.7507 122.334ZM100.287 145.396C98.3519 145.396 96.6857 144.983 95.288 144.156C93.8988 143.321 92.8249 142.149 92.0664 140.641C91.3164 139.124 90.9414 137.347 90.9414 135.31C90.9414 133.298 91.3164 131.526 92.0664 129.991C92.8249 128.457 93.8817 127.26 95.2369 126.399C96.6005 125.538 98.1942 125.108 100.018 125.108C101.126 125.108 102.2 125.291 103.24 125.658C104.279 126.024 105.213 126.599 106.039 127.384C106.866 128.168 107.518 129.186 107.995 130.439C108.473 131.683 108.711 133.196 108.711 134.977V136.332H93.1019V133.469H104.966C104.966 132.463 104.761 131.572 104.352 130.797C103.943 130.013 103.368 129.395 102.626 128.943C101.893 128.491 101.032 128.266 100.044 128.266C98.9698 128.266 98.0323 128.53 97.2312 129.058C96.4386 129.578 95.8249 130.26 95.3903 131.104C94.9641 131.939 94.7511 132.847 94.7511 133.827V136.064C94.7511 137.376 94.9812 138.493 95.4414 139.413C95.9102 140.334 96.5621 141.037 97.3974 141.523C98.2326 142 99.2085 142.239 100.325 142.239C101.049 142.239 101.71 142.136 102.306 141.932C102.903 141.719 103.419 141.403 103.853 140.986C104.288 140.568 104.62 140.053 104.85 139.439L108.468 140.091C108.179 141.156 107.659 142.089 106.909 142.891C106.167 143.683 105.234 144.301 104.109 144.744C102.993 145.179 101.718 145.396 100.287 145.396ZM121.224 145.396C119.323 145.396 117.687 144.966 116.315 144.105C114.951 143.236 113.903 142.038 113.17 140.513C112.437 138.987 112.07 137.24 112.07 135.271C112.07 133.277 112.445 131.517 113.195 129.991C113.945 128.457 115.002 127.26 116.366 126.399C117.729 125.538 119.336 125.108 121.185 125.108C122.677 125.108 124.006 125.385 125.174 125.939C126.342 126.484 127.283 127.251 127.999 128.24C128.724 129.229 129.154 130.384 129.29 131.705H125.57C125.366 130.784 124.897 129.991 124.164 129.327C123.44 128.662 122.468 128.33 121.249 128.33C120.184 128.33 119.251 128.611 118.45 129.173C117.657 129.727 117.039 130.52 116.596 131.551C116.153 132.574 115.931 133.784 115.931 135.182C115.931 136.614 116.148 137.849 116.583 138.889C117.018 139.929 117.631 140.734 118.424 141.305C119.225 141.876 120.167 142.162 121.249 142.162C121.974 142.162 122.63 142.03 123.218 141.766C123.815 141.493 124.313 141.105 124.714 140.602C125.123 140.099 125.408 139.494 125.57 138.787H129.29C129.154 140.057 128.741 141.19 128.05 142.188C127.36 143.185 126.435 143.969 125.276 144.54C124.126 145.111 122.775 145.396 121.224 145.396ZM142.544 125.364V128.432H131.819V125.364H142.544ZM134.695 120.659H138.517V139.234C138.517 139.976 138.628 140.534 138.85 140.909C139.071 141.276 139.357 141.527 139.706 141.663C140.064 141.791 140.452 141.855 140.87 141.855C141.176 141.855 141.445 141.834 141.675 141.791C141.905 141.749 142.084 141.714 142.212 141.689L142.902 144.847C142.681 144.932 142.365 145.017 141.956 145.102C141.547 145.196 141.036 145.247 140.422 145.256C139.417 145.273 138.479 145.094 137.61 144.719C136.74 144.344 136.037 143.764 135.5 142.98C134.963 142.196 134.695 141.212 134.695 140.027V120.659Z" fill="#0C1B38"/>
<path d="M10.9092 168C9.31716 168 8.02663 166.709 8.02637 165.117V163.164H10.0264V166.117C10.0265 167.157 10.4216 167.999 10.9092 168ZM8.02637 155.353H10.0264V161.258H8.02637V155.353ZM8.02637 147.54H10.0264V153.446H8.02637V147.54ZM8.02637 139.729H10.0264V145.635H8.02637V139.729ZM8.02637 131.917H10.0264V137.823H8.02637V131.917ZM8.02637 124.105H10.0264V130.012H8.02637V124.105ZM8.02637 116.294H10.0264V122.199H8.02637V116.294ZM8.02637 108.482H10.0264V114.388H8.02637V108.482ZM8.02637 100.671H10.0264V106.576H8.02637V100.671ZM8.02637 92.8584H10.0264V98.7646H8.02637V92.8584ZM8.02637 85.0469H10.0264V90.9531H8.02637V85.0469ZM8.02637 77.2354H10.0264V83.1416H8.02637V77.2354ZM8.02637 69.4238H10.0264V75.3291H8.02637V69.4238ZM8.02637 61.6123H10.0264V67.5176H8.02637V61.6123ZM8.02637 53.8008H10.0264V59.7061H8.02637V53.8008ZM8.02637 45.9883H10.0264V51.8945H8.02637V45.9883ZM8.02637 38.1768H10.0264V44.083H8.02637V38.1768ZM8.02637 30.3652H10.0264V36.2715H8.02637V30.3652ZM8.02637 22.5537H10.0264V28.46H8.02637V22.5537ZM8.02637 14.7422H10.0264V20.6475H8.02637V14.7422ZM8.02637 10.8828C8.02663 9.2908 9.31716 8.00026 10.9092 8C10.4216 8.00056 10.0265 8.84327 10.0264 9.88281V12.8359H8.02637V10.8828Z" fill="#EF0C5E"/>
<path d="M283.989 8C285.581 8.00026 286.872 9.2908 286.872 10.8828V12.8359H284.872V9.88281C284.872 8.84326 284.477 8.00056 283.989 8ZM286.872 20.6475H284.872V14.7422H286.872V20.6475ZM286.872 28.46H284.872V22.5537H286.872V28.46ZM286.872 36.2715H284.872V30.3652H286.872V36.2715ZM286.872 44.083H284.872V38.1768H286.872V44.083ZM286.872 51.8945H284.872V45.9883H286.872V51.8945ZM286.872 59.7061H284.872V53.8008H286.872V59.7061ZM286.872 67.5176H284.872V61.6123H286.872V67.5176ZM286.872 75.3291H284.872V69.4238H286.872V75.3291ZM286.872 83.1416H284.872V77.2354H286.872V83.1416ZM286.872 90.9531H284.872V85.0469H286.872V90.9531ZM286.872 98.7646H284.872V92.8584H286.872V98.7646ZM286.872 106.576H284.872V100.671H286.872V106.576ZM286.872 114.388H284.872V108.482H286.872V114.388ZM286.872 122.199H284.872V116.294H286.872V122.199ZM286.872 130.012H284.872V124.105H286.872V130.012ZM286.872 137.823H284.872V131.917H286.872V137.823ZM286.872 145.635H284.872V139.729H286.872V145.635ZM286.872 153.446H284.872V147.54H286.872V153.446ZM286.872 161.258H284.872V155.353H286.872V161.258ZM286.872 165.117C286.872 166.709 285.581 168 283.989 168C284.477 167.999 284.872 167.157 284.872 166.117V163.164H286.872V165.117Z" fill="#EF0C5E"/>
<path d="M13.0479 166.065V168.065H11.0273C9.92294 168.065 9.02759 167.169 9.02734 166.065H13.0479ZM21.1318 166.065V168.065H15.0898V166.065H21.1318ZM29.2148 166.065V168.065H23.1738V166.065H29.2148ZM37.2988 166.065V168.065H31.2568V166.065H37.2988ZM45.3828 166.065V168.065H39.3408V166.065H45.3828ZM53.4658 166.065V168.065H47.4248V166.065H53.4658ZM61.5498 166.065V168.065H55.5078V166.065H61.5498ZM69.6338 166.065V168.065H63.5918V166.065H69.6338ZM77.7178 166.065V168.065H71.6758V166.065H77.7178ZM85.8008 166.065V168.065H79.7588V166.065H85.8008ZM93.8848 166.065V168.065H87.8428V166.065H93.8848ZM101.969 166.065V168.065H95.9268V166.065H101.969ZM110.052 166.065V168.065H104.01V166.065H110.052ZM118.136 166.065V168.065H112.094V166.065H118.136ZM126.22 166.065V168.065H120.178V166.065H126.22ZM134.303 166.065V168.065H128.261V166.065H134.303ZM142.387 166.065V168.065H136.345V166.065H142.387ZM150.471 166.065V168.065H144.429V166.065H150.471ZM158.554 166.065V168.065H152.513V166.065H158.554ZM166.638 166.065V168.065H160.596V166.065H166.638ZM174.722 166.065V168.065H168.68V166.065H174.722ZM182.805 166.065V168.065H176.764V166.065H182.805ZM190.889 166.065V168.065H184.847V166.065H190.889ZM198.973 166.065V168.065H192.931V166.065H198.973ZM207.057 166.065V168.065H201.015V166.065H207.057ZM215.14 166.065V168.065H209.098V166.065H215.14ZM223.224 166.065V168.065H217.182V166.065H223.224ZM231.308 166.065V168.065H225.266V166.065H231.308ZM239.391 166.065V168.065H233.349V166.065H239.391ZM247.475 166.065V168.065H241.433V166.065H247.475ZM255.559 166.065V168.065H249.517V166.065H255.559ZM263.642 166.065V168.065H257.6V166.065H263.642ZM271.726 166.065V168.065H265.684V166.065H271.726ZM279.81 166.065V168.065H273.768V166.065H279.81ZM285.872 166.065L285.861 166.269C285.759 167.277 284.908 168.065 283.872 168.065H281.852V166.065H285.872Z" fill="#EF0C5E"/>
<path d="M9.02734 9.93567C9.02734 8.8311 9.92277 7.93567 11.0273 7.93567H13.0479V9.93567H9.02734ZM21.1318 7.93567V9.93567H15.0898V7.93567H21.1318ZM29.2148 7.93567V9.93567H23.1738V7.93567H29.2148ZM37.2988 7.93567V9.93567H31.2568V7.93567H37.2988ZM45.3828 7.93567V9.93567H39.3408V7.93567H45.3828ZM53.4658 7.93567V9.93567H47.4248V7.93567H53.4658ZM61.5498 7.93567V9.93567H55.5078V7.93567H61.5498ZM69.6338 7.93567V9.93567H63.5918V7.93567H69.6338ZM77.7168 7.93567V9.93567H71.6758V7.93567H77.7168ZM85.8008 7.93567V9.93567H79.7588V7.93567H85.8008ZM93.8848 7.93567V9.93567H87.8428V7.93567H93.8848ZM101.969 7.93567V9.93567H95.9268V7.93567H101.969ZM110.052 7.93567V9.93567H104.01V7.93567H110.052ZM118.136 7.93567V9.93567H112.094V7.93567H118.136ZM126.22 7.93567V9.93567H120.178V7.93567H126.22ZM134.303 7.93567V9.93567H128.261V7.93567H134.303ZM142.387 7.93567V9.93567H136.345V7.93567H142.387ZM150.471 7.93567V9.93567H144.429V7.93567H150.471ZM158.554 7.93567V9.93567H152.513V7.93567H158.554ZM166.638 7.93567V9.93567H160.596V7.93567H166.638ZM174.722 7.93567V9.93567H168.68V7.93567H174.722ZM182.805 7.93567V9.93567H176.764V7.93567H182.805ZM190.889 7.93567V9.93567H184.847V7.93567H190.889ZM198.973 7.93567V9.93567H192.931V7.93567H198.973ZM207.056 7.93567V9.93567H201.015V7.93567H207.056ZM215.14 7.93567V9.93567H209.098V7.93567H215.14ZM223.224 7.93567V9.93567H217.182V7.93567H223.224ZM231.308 7.93567V9.93567H225.266V7.93567H231.308ZM239.391 7.93567V9.93567H233.349V7.93567H239.391ZM247.475 7.93567V9.93567H241.433V7.93567H247.475ZM255.559 7.93567V9.93567H249.517V7.93567H255.559ZM263.642 7.93567V9.93567H257.6V7.93567H263.642ZM271.726 7.93567V9.93567H265.684V7.93567H271.726ZM279.81 7.93567V9.93567H273.768V7.93567H279.81ZM283.872 7.93567C284.977 7.93567 285.872 8.8311 285.872 9.93567H281.852V7.93567H283.872Z" fill="#EF0C5E"/>
<rect x="264.883" y="48" width="31.1037" height="79" fill="#F2F6F9"/>
<path d="M276.997 50.645H283.047C283.59 50.645 284.081 50.777 284.521 51.041C284.976 51.305 285.328 51.657 285.577 52.097C285.841 52.5517 285.973 53.0503 285.973 53.593V63.383C285.973 63.4857 286.01 63.5737 286.083 63.647C286.171 63.735 286.274 63.779 286.391 63.779H289.801C289.918 63.779 290.014 63.735 290.087 63.647C290.175 63.5737 290.219 63.4857 290.219 63.383V53.681C290.219 53.5637 290.175 53.461 290.087 53.373C290.014 53.2997 289.918 53.263 289.801 53.263H288.833V50.645H289.889C290.446 50.645 290.945 50.777 291.385 51.041C291.825 51.305 292.177 51.657 292.441 52.097C292.705 52.5517 292.837 53.0503 292.837 53.593V63.449C292.837 63.9917 292.705 64.483 292.441 64.923C292.177 65.3777 291.825 65.737 291.385 66.001C290.945 66.265 290.446 66.397 289.889 66.397H286.303C285.76 66.397 285.262 66.265 284.807 66.001C284.367 65.737 284.008 65.3777 283.729 64.923C283.465 64.483 283.333 63.9917 283.333 63.449V53.681C283.333 53.5637 283.296 53.461 283.223 53.373C283.15 53.2997 283.054 53.263 282.937 53.263H280.033C279.916 53.263 279.813 53.2997 279.725 53.373C279.652 53.461 279.615 53.5637 279.615 53.681V66.397H276.997V50.645ZM276.997 72.9547C276.997 72.4121 277.136 71.9134 277.415 71.4587C277.708 71.0187 278.09 70.6667 278.559 70.4027C279.028 70.1387 279.527 70.0067 280.055 70.0067H289.845C290.388 70.0067 290.886 70.1387 291.341 70.4027C291.796 70.6667 292.155 71.0187 292.419 71.4587C292.698 71.9134 292.837 72.4121 292.837 72.9547V82.8107C292.837 83.3534 292.698 83.8447 292.419 84.2847C292.155 84.7394 291.796 85.0987 291.341 85.3627C290.886 85.6267 290.388 85.7587 289.845 85.7587H280.055C279.527 85.7587 279.028 85.6267 278.559 85.3627C278.09 85.0987 277.708 84.7394 277.415 84.2847C277.136 83.8447 276.997 83.3534 276.997 82.8107V72.9547ZM279.747 73.6807V82.7447C279.747 82.8474 279.784 82.9354 279.857 83.0087C279.945 83.0967 280.04 83.1407 280.143 83.1407H287.601L279.747 73.6807ZM282.299 72.6247L290.153 82.0847V73.0427C290.153 72.9254 290.109 72.8227 290.021 72.7347C289.948 72.6614 289.86 72.6247 289.757 72.6247H282.299ZM276.997 89.4544H283.047C283.59 89.4544 284.081 89.5864 284.521 89.8504C284.976 90.1144 285.328 90.4664 285.577 90.9064C285.841 91.3611 285.973 91.8597 285.973 92.4024V102.192C285.973 102.295 286.01 102.383 286.083 102.456C286.171 102.544 286.274 102.588 286.391 102.588H289.801C289.918 102.588 290.014 102.544 290.087 102.456C290.175 102.383 290.219 102.295 290.219 102.192V92.4904C290.219 92.3731 290.175 92.2704 290.087 92.1824C290.014 92.1091 289.918 92.0724 289.801 92.0724H288.833V89.4544H289.889C290.446 89.4544 290.945 89.5864 291.385 89.8504C291.825 90.1144 292.177 90.4664 292.441 90.9064C292.705 91.3611 292.837 91.8597 292.837 92.4024V102.258C292.837 102.801 292.705 103.292 292.441 103.732C292.177 104.187 291.825 104.546 291.385 104.81C290.945 105.074 290.446 105.206 289.889 105.206H286.303C285.76 105.206 285.262 105.074 284.807 104.81C284.367 104.546 284.008 104.187 283.729 103.732C283.465 103.292 283.333 102.801 283.333 102.258V92.4904C283.333 92.3731 283.296 92.2704 283.223 92.1824C283.15 92.1091 283.054 92.0724 282.937 92.0724H280.033C279.916 92.0724 279.813 92.1091 279.725 92.1824C279.652 92.2704 279.615 92.3731 279.615 92.4904V105.206H276.997V89.4544ZM276.997 111.764C276.997 111.221 277.129 110.723 277.393 110.268C277.672 109.828 278.031 109.476 278.471 109.212C278.911 108.948 279.402 108.816 279.945 108.816H289.889C290.446 108.816 290.945 108.948 291.385 109.212C291.825 109.476 292.177 109.828 292.441 110.268C292.705 110.723 292.837 111.221 292.837 111.764V121.994H290.219V111.852C290.219 111.735 290.175 111.632 290.087 111.544C290.014 111.471 289.918 111.434 289.801 111.434H286.853C286.75 111.434 286.655 111.471 286.567 111.544C286.479 111.632 286.435 111.735 286.435 111.852V121.62C286.435 122.163 286.303 122.654 286.039 123.094C285.79 123.549 285.438 123.908 284.983 124.172C284.543 124.436 284.052 124.568 283.509 124.568H279.945C279.402 124.568 278.911 124.436 278.471 124.172C278.031 123.908 277.672 123.549 277.393 123.094C277.129 122.654 276.997 122.163 276.997 121.62V111.764ZM279.615 111.852V121.554C279.615 121.657 279.652 121.745 279.725 121.818C279.813 121.906 279.916 121.95 280.033 121.95H283.399C283.502 121.95 283.59 121.906 283.663 121.818C283.751 121.745 283.795 121.657 283.795 121.554V111.434H280.033C279.916 111.434 279.813 111.471 279.725 111.544C279.652 111.632 279.615 111.735 279.615 111.852Z" fill="#EF0C5E"/>
</svg>
